<?xml version="1.0" encoding="UTF-8"?>
<!-- Generator: Adobe Illustrator 15.0.2, SVG Export Plug-In . SVG Version: 6.00 Build 0)  -->
<!DOCTYPE svg PUBLIC "-//W3C//DTD SVG 1.1//EN" "http://www.w3.org/Graphics/SVG/1.1/DTD/svg11.dtd">
<svg xmlns="http://www.w3.org/2000/svg" xmlns:xlink="http://www.w3.org/1999/xlink" version="1.1" id="Layer_1" x="0px" y="0px" width="512px" height="512px" viewBox="0 0 512 512" enable-background="new 0 0 512 512" xml:space="preserve">
<path d="M256,0c141.382,0,256,114.618,256,256S397.382,512,256,512S0,397.382,0,256S114.618,0,256,0z M256,53.336  c-104.724,0-190.895,79.427-201.56,181.328h97.026c9.882-48.684,52.928-85.328,104.533-85.328s94.658,36.645,104.526,85.328h97.026  C446.895,132.763,360.724,53.336,256,53.336z M54.44,277.342C65.105,379.237,151.276,458.658,256,458.658  s190.895-79.421,201.553-181.316h-97.026c-9.868,48.685-52.921,85.316-104.526,85.316s-94.651-36.632-104.533-85.316H54.44z   M256,192c-35.349,0-64,28.658-64,64s28.651,64,64,64c35.342,0,64-28.658,64-64S291.342,192,256,192z M256,224  c17.671,0,32,14.329,32,32s-14.329,32-32,32s-32-14.329-32-32S238.329,224,256,224z" fill="#000000"/>
</svg>
